<svg width="203" height="203" viewBox="0 0 203 203" fill="none" xmlns="http://www.w3.org/2000/svg">
<path d="M64.05 196.47C57.9652 196.437 53.0499 191.495 53.05 185.41V19.06C52.9288 15.0312 55.009 11.2554 58.4793 9.20515C61.9496 7.15492 66.2604 7.15492 69.7307 9.20515C73.201 11.2554 75.2812 15.0312 75.16 19.06V185.41C75.16 188.352 73.9879 191.173 71.9029 193.248C69.818 195.324 66.992 196.483 64.05 196.47Z" fill="#CEDC21"/>
<path d="M64.06 196.47C58.929 196.424 54.5034 192.855 53.3713 187.85C52.2393 182.846 54.6982 177.72 59.31 175.47L125.97 143.83L57.5 93.35C52.5847 89.7298 51.5348 82.8103 55.155 77.895C58.7752 72.9797 65.6947 71.9298 70.61 75.55L153.96 136.96C157.117 139.249 158.826 143.039 158.452 146.921C158.078 150.803 155.676 154.196 152.14 155.84L68.81 195.4C67.3271 196.109 65.7036 196.475 64.06 196.47Z" fill="#51B13E"/>
<path d="M64.06 131.08C59.2549 131.115 54.9783 128.04 53.4807 123.474C51.9831 118.908 53.6079 113.898 57.5 111.08L125.97 60.6301L59.31 29.0401C53.7871 26.4222 51.4322 19.8229 54.05 14.3C56.6678 8.7772 63.2671 6.42222 68.79 9.04005L152.14 48.6C155.657 50.2643 158.039 53.6555 158.412 57.5284C158.786 61.4012 157.094 65.1849 153.96 67.4901L70.61 128.93C68.7134 130.33 66.4173 131.084 64.06 131.08Z" fill="#CEDC21"/>
<path d="M75.11 78.86V125.61L106.82 102.25L75.11 78.86Z" fill="#1E7A44"/>
<path d="M53 59.26H75.11V113.15H53V59.26Z" fill="white"/>
<path d="M75.11 19.06C75.2312 15.0312 73.151 11.2554 69.6807 9.20515C66.2104 7.15492 61.8996 7.15492 58.4293 9.20515C54.959 11.2554 52.8788 15.0312 53 19.06V158.15H75.11V19.06Z" fill="#CEDC21"/>
</svg>
