<svg width="1440" height="912" viewBox="0 0 1440 912" fill="none" xmlns="http://www.w3.org/2000/svg">
<g clip-path="url(#clip0)">
<path d="M667 514C667 498.536 679.536 486 695 486H788C803.464 486 816 498.536 816 514V904H667V514Z" fill="#F8F9FD"/>
<path d="M455 761C455 745.536 467.536 733 483 733H576C591.464 733 604 745.536 604 761V904H455V761Z" fill="#F8F9FD"/>
<path d="M879 594C879 578.536 891.536 566 907 566H1000C1015.46 566 1028 578.536 1028 594V904H879V594Z" fill="#F8F9FD"/>
<path d="M1091 308C1091 292.536 1103.54 280 1119 280H1212C1227.46 280 1240 292.536 1240 308V904H1091V308Z" fill="#F8F9FD"/>
<circle cx="890.5" cy="140.5" r="3.5" fill="#FFD100"/>
<path d="M1355.77 200.53C1354.13 190.166 1344.39 183.093 1334.03 184.734L1165.13 211.46C1154.77 213.101 1147.7 222.832 1149.34 233.197C1150.98 243.561 1160.71 250.634 1171.07 248.993L1321.2 225.236L1344.96 375.368C1346.6 385.733 1356.33 392.805 1366.7 391.165C1377.06 389.525 1384.13 379.793 1382.49 369.429L1355.77 200.53ZM876.067 812.989L880.281 794.463L876.067 812.989ZM900.805 803.697L885.435 792.527L900.805 803.697ZM569.858 743.335L574.072 724.808L569.858 743.335ZM464.738 921.366L560.261 764.141L527.785 744.41L432.262 901.634L464.738 921.366ZM565.643 761.861L871.853 831.516L880.281 794.463L574.072 724.808L565.643 761.861ZM916.175 814.867L1352.37 214.67L1321.63 192.33L885.435 792.527L916.175 814.867ZM871.853 831.516C888.627 835.332 906.061 828.783 916.175 814.867L885.435 792.527C884.259 794.145 882.232 794.906 880.281 794.463L871.853 831.516ZM560.261 764.141C561.378 762.302 563.546 761.384 565.643 761.861L574.072 724.808C556.033 720.705 537.391 728.599 527.785 744.41L560.261 764.141Z" fill="#F2F4F9"/>
</g>
<defs>
<clipPath id="clip0">
<rect width="1440" height="912" fill="white"/>
</clipPath>
</defs>
</svg>
