<svg width="1440" height="1051" viewBox="0 0 1440 1051" fill="none" xmlns="http://www.w3.org/2000/svg">
<g clip-path="url(#clip0)">
<path d="M1358.45 474.506C1344.77 521.312 1295.72 548.13 1248.98 534.451C1202.18 520.769 1175.36 471.718 1189.04 424.981C1202.72 378.176 1251.7 351.354 1298.51 365.036C1345.25 378.646 1372.14 427.7 1358.45 474.506Z" fill="#F2F4F9"/>
<path d="M1316.18 440.438C1318.38 428.792 1309.74 422.096 1297.64 417.4L1302.28 401.642L1292.73 398.843L1288.25 414.194C1285.72 413.471 1283.13 412.746 1280.53 412.09L1285.02 396.671L1275.46 393.872L1270.9 409.564C1268.78 408.996 1266.74 408.43 1264.76 407.868L1264.76 407.799L1251.52 403.955L1248.56 414.189C1248.56 414.189 1255.66 416.13 1255.52 416.194C1259.41 417.316 1259.99 419.962 1259.77 422.024L1254.5 439.965C1254.77 440.045 1255.11 440.128 1255.52 440.351C1255.17 440.269 1254.83 440.186 1254.49 440.034L1247.14 465.139C1246.61 466.291 1245.3 468.033 1242.64 467.236C1242.7 467.377 1235.68 465.231 1235.68 465.231L1230.41 476.132L1242.89 479.808C1245.21 480.522 1247.46 481.165 1249.71 481.876L1245.07 497.772L1254.62 500.571L1259.25 484.813C1261.85 485.607 1264.44 486.401 1266.89 487.121L1262.33 502.813L1271.88 505.612L1276.52 489.716C1292.93 493.48 1305.39 492.737 1311.16 477.991C1315.84 466.169 1311.71 459.032 1303.21 454.136C1309.68 452.946 1314.6 448.933 1316.18 440.438V440.438ZM1292.82 470.56C1289.37 482.432 1269.37 475.142 1262.89 473.225L1269.05 452.145C1275.53 454.061 1296.49 458.146 1292.82 470.56ZM1297.1 439.466C1293.91 450.312 1277.32 444.056 1271.93 442.459L1277.53 423.358C1282.91 424.954 1300.38 428.209 1297.1 439.466Z" fill="white"/>
</g>
<defs>
<clipPath id="clip0">
<rect width="176.553" height="176.553" fill="white" transform="translate(1189.08 358) rotate(2.29697)"/>
</clipPath>
</defs>
</svg>
