<svg width="1440" height="1149" viewBox="0 0 1440 1149" fill="none" xmlns="http://www.w3.org/2000/svg">
<circle cx="1272.59" cy="479.593" r="86.5" fill="#F2F4F9"/>
<path d="M1243.09 441.593C1239.11 441.593 1235.3 443.173 1232.49 445.986C1229.67 448.799 1228.09 452.615 1228.09 456.593V458.1L1273.09 482.333L1318.09 458.108V456.593C1318.09 452.615 1316.51 448.799 1313.7 445.986C1310.89 443.173 1307.07 441.593 1303.09 441.593H1243.09Z" fill="white"/>
<path d="M1318.09 466.62L1274.87 489.892C1274.32 490.186 1273.71 490.34 1273.09 490.34C1272.47 490.34 1271.86 490.186 1271.32 489.892L1228.09 466.62V501.592C1228.09 505.571 1229.67 509.386 1232.49 512.199C1235.3 515.012 1239.11 516.592 1243.09 516.592H1303.09C1307.07 516.592 1310.89 515.012 1313.7 512.199C1316.51 509.386 1318.09 505.571 1318.09 501.592V466.62Z" fill="white"/>
</svg>
