<svg width="390" height="1696" viewBox="0 0 390 1696" fill="none" xmlns="http://www.w3.org/2000/svg">
<g clip-path="url(#clip0)">
<g clip-path="url(#clip1)">
<path d="M401.583 251.947C397.971 264.303 385.021 271.383 372.683 267.772C360.326 264.16 353.246 251.211 356.858 238.873C360.469 226.517 373.401 219.436 385.757 223.048C398.096 226.641 405.195 239.591 401.583 251.947Z" fill="#F8F9FD"/>
<path d="M390.423 242.953C391.002 239.878 388.722 238.111 385.529 236.871L386.752 232.711L384.231 231.972L383.048 236.025C382.381 235.834 381.697 235.642 381.011 235.469L382.195 231.399L379.674 230.66L378.469 234.802C377.91 234.652 377.369 234.503 376.847 234.355L376.848 234.336L373.354 233.322L372.571 236.023C372.571 236.023 374.445 236.536 374.408 236.553C375.435 236.849 375.589 237.547 375.531 238.092L374.138 242.828C374.21 242.849 374.301 242.871 374.408 242.93C374.317 242.908 374.227 242.886 374.138 242.846L372.195 249.474C372.056 249.778 371.709 250.238 371.007 250.027C371.024 250.064 369.17 249.498 369.17 249.498L367.779 252.376L371.074 253.346C371.686 253.535 372.281 253.704 372.875 253.892L371.649 258.088L374.171 258.827L375.394 254.667C376.078 254.877 376.762 255.087 377.411 255.277L376.206 259.419L378.727 260.158L379.952 255.962C384.286 256.955 387.573 256.759 389.096 252.866C390.333 249.746 389.242 247.862 386.998 246.569C388.705 246.255 390.005 245.195 390.423 242.953V242.953ZM384.255 250.905C383.346 254.039 378.066 252.114 376.355 251.608L377.982 246.043C379.692 246.549 385.225 247.627 384.255 250.905ZM385.386 242.696C384.542 245.559 380.163 243.908 378.74 243.486L380.218 238.444C381.64 238.865 386.252 239.724 385.386 242.696Z" fill="#4973EB"/>
</g>
<path d="M15.84 1610.6C15.84 1608.95 16.208 1607.48 16.944 1606.18C17.696 1604.87 18.712 1603.86 19.992 1603.14C21.288 1602.4 22.736 1602.03 24.336 1602.03C26.208 1602.03 27.848 1602.51 29.256 1603.47C30.664 1604.43 31.648 1605.76 32.208 1607.46H28.344C27.96 1606.66 27.416 1606.06 26.712 1605.66C26.024 1605.26 25.224 1605.06 24.312 1605.06C23.336 1605.06 22.464 1605.29 21.696 1605.75C20.944 1606.2 20.352 1606.84 19.92 1607.67C19.504 1608.5 19.296 1609.48 19.296 1610.6C19.296 1611.7 19.504 1612.68 19.92 1613.53C20.352 1614.36 20.944 1615.01 21.696 1615.47C22.464 1615.92 23.336 1616.14 24.312 1616.14C25.224 1616.14 26.024 1615.94 26.712 1615.54C27.416 1615.13 27.96 1614.52 28.344 1613.72H32.208C31.648 1615.43 30.664 1616.77 29.256 1617.73C27.864 1618.67 26.224 1619.14 24.336 1619.14C22.736 1619.14 21.288 1618.78 19.992 1618.06C18.712 1617.33 17.696 1616.31 16.944 1615.02C16.208 1613.72 15.84 1612.25 15.84 1610.6ZM38.4379 1607.77C38.8699 1607.06 39.4299 1606.51 40.1179 1606.11C40.8219 1605.71 41.6219 1605.51 42.5179 1605.51V1609.04H41.6299C40.5739 1609.04 39.7739 1609.29 39.2299 1609.78C38.7019 1610.28 38.4379 1611.14 38.4379 1612.38V1619H35.0779V1605.7H38.4379V1607.77ZM57.501 1605.7L49.269 1625.29H45.693L48.573 1618.66L43.245 1605.7H47.013L50.445 1614.99L53.925 1605.7H57.501ZM62.6723 1607.62C63.1043 1607.02 63.6963 1606.51 64.4483 1606.11C65.2163 1605.7 66.0883 1605.49 67.0643 1605.49C68.2003 1605.49 69.2243 1605.77 70.1363 1606.33C71.0643 1606.89 71.7923 1607.69 72.3203 1608.73C72.8643 1609.75 73.1363 1610.94 73.1363 1612.3C73.1363 1613.66 72.8643 1614.87 72.3203 1615.93C71.7923 1616.97 71.0643 1617.78 70.1363 1618.35C69.2243 1618.93 68.2003 1619.22 67.0643 1619.22C66.0883 1619.22 65.2243 1619.02 64.4723 1618.62C63.7363 1618.22 63.1363 1617.71 62.6723 1617.1V1625.34H59.3123V1605.7H62.6723V1607.62ZM69.7043 1612.3C69.7043 1611.5 69.5363 1610.82 69.2003 1610.24C68.8803 1609.65 68.4483 1609.2 67.9043 1608.9C67.3763 1608.59 66.8003 1608.44 66.1763 1608.44C65.5683 1608.44 64.9923 1608.6 64.4483 1608.92C63.9203 1609.22 63.4883 1609.67 63.1523 1610.26C62.8323 1610.86 62.6723 1611.55 62.6723 1612.35C62.6723 1613.15 62.8323 1613.85 63.1523 1614.44C63.4883 1615.03 63.9203 1615.49 64.4483 1615.81C64.9923 1616.11 65.5683 1616.26 66.1763 1616.26C66.8003 1616.26 67.3763 1616.1 67.9043 1615.78C68.4483 1615.46 68.8803 1615.01 69.2003 1614.42C69.5363 1613.82 69.7043 1613.12 69.7043 1612.3ZM79.4899 1608.46V1614.9C79.4899 1615.34 79.5939 1615.67 79.8019 1615.88C80.0259 1616.07 80.3939 1616.17 80.9059 1616.17H82.4659V1619H80.3539C77.5219 1619 76.1059 1617.62 76.1059 1614.87V1608.46H74.5219V1605.7H76.1059V1602.42H79.4899V1605.7H82.4659V1608.46H79.4899ZM90.7866 1619.22C89.5066 1619.22 88.3546 1618.94 87.3306 1618.38C86.3066 1617.8 85.4986 1616.99 84.9066 1615.95C84.3306 1614.91 84.0426 1613.71 84.0426 1612.35C84.0426 1610.99 84.3386 1609.79 84.9306 1608.75C85.5386 1607.71 86.3626 1606.91 87.4026 1606.35C88.4426 1605.78 89.6026 1605.49 90.8826 1605.49C92.1626 1605.49 93.3226 1605.78 94.3626 1606.35C95.4026 1606.91 96.2186 1607.71 96.8106 1608.75C97.4186 1609.79 97.7226 1610.99 97.7226 1612.35C97.7226 1613.71 97.4106 1614.91 96.7866 1615.95C96.1786 1616.99 95.3466 1617.8 94.2906 1618.38C93.2506 1618.94 92.0826 1619.22 90.7866 1619.22ZM90.7866 1616.29C91.3946 1616.29 91.9626 1616.14 92.4906 1615.86C93.0346 1615.55 93.4666 1615.1 93.7866 1614.51C94.1066 1613.92 94.2666 1613.2 94.2666 1612.35C94.2666 1611.09 93.9306 1610.12 93.2586 1609.45C92.6026 1608.76 91.7946 1608.42 90.8346 1608.42C89.8746 1608.42 89.0666 1608.76 88.4106 1609.45C87.7706 1610.12 87.4506 1611.09 87.4506 1612.35C87.4506 1613.62 87.7626 1614.59 88.3866 1615.28C89.0266 1615.95 89.8266 1616.29 90.7866 1616.29ZM107.675 1605.51C108.683 1605.51 109.579 1605.74 110.363 1606.18C111.147 1606.62 111.755 1607.26 112.187 1608.13C112.635 1608.98 112.859 1610 112.859 1611.2V1619H109.499V1611.66C109.499 1610.6 109.235 1609.79 108.707 1609.23C108.179 1608.66 107.459 1608.37 106.547 1608.37C105.619 1608.37 104.883 1608.66 104.339 1609.23C103.811 1609.79 103.547 1610.6 103.547 1611.66V1619H100.187V1601.24H103.547V1607.36C103.979 1606.78 104.555 1606.34 105.275 1606.02C105.995 1605.68 106.795 1605.51 107.675 1605.51ZM121.958 1619.22C120.678 1619.22 119.526 1618.94 118.502 1618.38C117.478 1617.8 116.67 1616.99 116.078 1615.95C115.502 1614.91 115.214 1613.71 115.214 1612.35C115.214 1610.99 115.51 1609.79 116.102 1608.75C116.71 1607.71 117.534 1606.91 118.574 1606.35C119.614 1605.78 120.774 1605.49 122.054 1605.49C123.334 1605.49 124.494 1605.78 125.534 1606.35C126.574 1606.91 127.39 1607.71 127.982 1608.75C128.59 1609.79 128.894 1610.99 128.894 1612.35C128.894 1613.71 128.582 1614.91 127.958 1615.95C127.35 1616.99 126.518 1617.8 125.462 1618.38C124.422 1618.94 123.254 1619.22 121.958 1619.22ZM121.958 1616.29C122.566 1616.29 123.134 1616.14 123.662 1615.86C124.206 1615.55 124.638 1615.1 124.958 1614.51C125.278 1613.92 125.438 1613.2 125.438 1612.35C125.438 1611.09 125.102 1610.12 124.43 1609.45C123.774 1608.76 122.966 1608.42 122.006 1608.42C121.046 1608.42 120.238 1608.76 119.582 1609.45C118.942 1610.12 118.622 1611.09 118.622 1612.35C118.622 1613.62 118.934 1614.59 119.558 1615.28C120.198 1615.95 120.998 1616.29 121.958 1616.29ZM136.447 1619.22C135.359 1619.22 134.383 1619.02 133.519 1618.64C132.655 1618.24 131.967 1617.7 131.455 1617.03C130.959 1616.36 130.687 1615.62 130.639 1614.8H134.023C134.087 1615.31 134.335 1615.74 134.767 1616.07C135.215 1616.41 135.767 1616.58 136.423 1616.58C137.063 1616.58 137.559 1616.45 137.911 1616.19C138.279 1615.94 138.463 1615.61 138.463 1615.21C138.463 1614.78 138.239 1614.46 137.791 1614.25C137.359 1614.02 136.663 1613.78 135.703 1613.53C134.711 1613.29 133.895 1613.04 133.255 1612.78C132.631 1612.53 132.087 1612.14 131.623 1611.61C131.175 1611.08 130.951 1610.37 130.951 1609.47C130.951 1608.74 131.159 1608.06 131.575 1607.46C132.007 1606.85 132.615 1606.37 133.399 1606.02C134.199 1605.66 135.135 1605.49 136.207 1605.49C137.791 1605.49 139.055 1605.89 139.999 1606.69C140.943 1607.47 141.463 1608.54 141.559 1609.88H138.343C138.295 1609.35 138.071 1608.94 137.671 1608.63C137.287 1608.31 136.767 1608.15 136.111 1608.15C135.503 1608.15 135.031 1608.26 134.695 1608.49C134.375 1608.71 134.215 1609.02 134.215 1609.42C134.215 1609.87 134.439 1610.22 134.887 1610.46C135.335 1610.68 136.031 1610.91 136.975 1611.15C137.935 1611.39 138.727 1611.64 139.351 1611.9C139.975 1612.15 140.511 1612.55 140.959 1613.1C141.423 1613.62 141.663 1614.33 141.679 1615.21C141.679 1615.98 141.463 1616.66 141.031 1617.27C140.615 1617.88 140.007 1618.36 139.207 1618.71C138.423 1619.05 137.503 1619.22 136.447 1619.22ZM148.349 1608.46V1614.9C148.349 1615.34 148.453 1615.67 148.661 1615.88C148.885 1616.07 149.253 1616.17 149.765 1616.17H151.325V1619H149.213C146.381 1619 144.965 1617.62 144.965 1614.87V1608.46H143.381V1605.7H144.965V1602.42H148.349V1605.7H151.325V1608.46H148.349Z" fill="#4973EB"/>
<path d="M25.936 1650.27L22.282 1660H20.434L16.766 1650.27H18.474L21.358 1658.36L24.256 1650.27H25.936ZM34.0747 1653.17C34.0747 1653.66 33.958 1654.13 33.7247 1654.57C33.4914 1655.01 33.118 1655.37 32.6047 1655.65C32.0914 1655.92 31.4334 1656.05 30.6307 1656.05H28.8667V1660H27.2707V1650.27H30.6307C31.3774 1650.27 32.0074 1650.4 32.5207 1650.66C33.0434 1650.91 33.4307 1651.26 33.6827 1651.7C33.944 1652.14 34.0747 1652.63 34.0747 1653.17ZM30.6307 1654.75C31.2374 1654.75 31.69 1654.61 31.9887 1654.34C32.2874 1654.06 32.4367 1653.67 32.4367 1653.17C32.4367 1652.1 31.8347 1651.57 30.6307 1651.57H28.8667V1654.75H30.6307ZM38.8029 1660.1C38.1495 1660.1 37.5615 1659.99 37.0389 1659.76C36.5162 1659.53 36.1055 1659.2 35.8069 1658.78C35.5082 1658.36 35.3589 1657.87 35.3589 1657.31H37.0669C37.1042 1657.73 37.2675 1658.08 37.5569 1658.35C37.8555 1658.62 38.2709 1658.75 38.8029 1658.75C39.3535 1658.75 39.7829 1658.62 40.0909 1658.36C40.3989 1658.09 40.5529 1657.75 40.5529 1657.33C40.5529 1657 40.4549 1656.73 40.2589 1656.53C40.0722 1656.32 39.8342 1656.16 39.5449 1656.05C39.2649 1655.94 38.8729 1655.82 38.3689 1655.69C37.7342 1655.52 37.2162 1655.35 36.8149 1655.18C36.4229 1655.01 36.0869 1654.74 35.8069 1654.37C35.5269 1654.01 35.3869 1653.52 35.3869 1652.92C35.3869 1652.36 35.5269 1651.87 35.8069 1651.45C36.0869 1651.03 36.4789 1650.7 36.9829 1650.48C37.4869 1650.26 38.0702 1650.14 38.7329 1650.14C39.6755 1650.14 40.4455 1650.38 41.0429 1650.86C41.6495 1651.32 41.9855 1651.97 42.0509 1652.79H40.2869C40.2589 1652.44 40.0909 1652.13 39.7829 1651.88C39.4749 1651.63 39.0689 1651.5 38.5649 1651.5C38.1075 1651.5 37.7342 1651.62 37.4449 1651.85C37.1555 1652.09 37.0109 1652.42 37.0109 1652.86C37.0109 1653.16 37.0995 1653.41 37.2769 1653.6C37.4635 1653.79 37.6969 1653.94 37.9769 1654.05C38.2569 1654.16 38.6395 1654.28 39.1249 1654.41C39.7689 1654.59 40.2915 1654.77 40.6929 1654.95C41.1035 1655.12 41.4489 1655.4 41.7289 1655.77C42.0182 1656.14 42.1629 1656.63 42.1629 1657.24C42.1629 1657.74 42.0275 1658.2 41.7569 1658.64C41.4955 1659.08 41.1082 1659.44 40.5949 1659.71C40.0909 1659.97 39.4935 1660.1 38.8029 1660.1Z" fill="#4973EB"/>
<path d="M82.758 1655C83.2807 1655.1 83.724 1655.37 84.088 1655.83C84.452 1656.29 84.634 1656.8 84.634 1657.38C84.634 1657.88 84.5033 1658.32 84.242 1658.73C83.99 1659.12 83.6213 1659.43 83.136 1659.66C82.6507 1659.89 82.086 1660 81.442 1660H77.55V1650.27H81.26C81.9227 1650.27 82.492 1650.38 82.968 1650.61C83.444 1650.83 83.8033 1651.13 84.046 1651.52C84.2887 1651.89 84.41 1652.31 84.41 1652.78C84.41 1653.34 84.2607 1653.8 83.962 1654.18C83.6633 1654.55 83.262 1654.82 82.758 1655ZM79.146 1654.36H81.12C81.6427 1654.36 82.0487 1654.24 82.338 1654.01C82.6367 1653.77 82.786 1653.42 82.786 1652.97C82.786 1652.53 82.6367 1652.19 82.338 1651.95C82.0487 1651.7 81.6427 1651.57 81.12 1651.57H79.146V1654.36ZM81.302 1658.7C81.8433 1658.7 82.268 1658.57 82.576 1658.31C82.884 1658.04 83.038 1657.68 83.038 1657.21C83.038 1656.74 82.8747 1656.36 82.548 1656.08C82.2213 1655.8 81.7873 1655.66 81.246 1655.66H79.146V1658.7H81.302ZM92.6544 1650.27V1651.57H90.0644V1660H88.4684V1651.57H85.8644V1650.27H92.6544ZM93.7387 1655.11C93.7387 1654.16 93.958 1653.31 94.3967 1652.55C94.8447 1651.8 95.4467 1651.21 96.2027 1650.79C96.968 1650.36 97.8034 1650.14 98.7087 1650.14C99.7447 1650.14 100.664 1650.4 101.467 1650.91C102.279 1651.42 102.867 1652.14 103.231 1653.07H101.313C101.061 1652.56 100.711 1652.17 100.263 1651.92C99.8147 1651.67 99.2967 1651.54 98.7087 1651.54C98.0647 1651.54 97.4907 1651.69 96.9867 1651.98C96.4827 1652.27 96.086 1652.68 95.7967 1653.22C95.5167 1653.77 95.3767 1654.4 95.3767 1655.11C95.3767 1655.83 95.5167 1656.46 95.7967 1657C96.086 1657.55 96.4827 1657.97 96.9867 1658.26C97.4907 1658.55 98.0647 1658.7 98.7087 1658.7C99.2967 1658.7 99.8147 1658.57 100.263 1658.32C100.711 1658.07 101.061 1657.69 101.313 1657.17H103.231C102.867 1658.11 102.279 1658.82 101.467 1659.33C100.664 1659.83 99.7447 1660.08 98.7087 1660.08C97.794 1660.08 96.9587 1659.87 96.2027 1659.45C95.4467 1659.02 94.8447 1658.43 94.3967 1657.68C93.958 1656.92 93.7387 1656.07 93.7387 1655.11ZM115.54 1653.17C115.54 1653.66 115.423 1654.13 115.19 1654.57C114.956 1655.01 114.583 1655.37 114.07 1655.65C113.556 1655.92 112.898 1656.05 112.096 1656.05H110.332V1660H108.736V1650.27H112.096C112.842 1650.27 113.472 1650.4 113.986 1650.66C114.508 1650.91 114.896 1651.26 115.148 1651.7C115.409 1652.14 115.54 1652.63 115.54 1653.17ZM112.096 1654.75C112.702 1654.75 113.155 1654.61 113.454 1654.34C113.752 1654.06 113.902 1653.67 113.902 1653.17C113.902 1652.1 113.3 1651.57 112.096 1651.57H110.332V1654.75H112.096ZM116.53 1656.11C116.53 1655.33 116.688 1654.65 117.006 1654.05C117.332 1653.45 117.771 1652.99 118.322 1652.66C118.882 1652.33 119.498 1652.16 120.17 1652.16C120.776 1652.16 121.304 1652.28 121.752 1652.52C122.209 1652.76 122.573 1653.05 122.844 1653.41V1652.29H124.454V1660H122.844V1658.85C122.573 1659.22 122.204 1659.52 121.738 1659.76C121.271 1660 120.739 1660.13 120.142 1660.13C119.479 1660.13 118.872 1659.96 118.322 1659.62C117.771 1659.28 117.332 1658.8 117.006 1658.19C116.688 1657.58 116.53 1656.88 116.53 1656.11ZM122.844 1656.14C122.844 1655.6 122.732 1655.14 122.508 1654.75C122.293 1654.36 122.008 1654.06 121.654 1653.85C121.299 1653.65 120.916 1653.55 120.506 1653.55C120.095 1653.55 119.712 1653.65 119.358 1653.85C119.003 1654.05 118.714 1654.34 118.49 1654.74C118.275 1655.12 118.168 1655.58 118.168 1656.11C118.168 1656.64 118.275 1657.11 118.49 1657.51C118.714 1657.91 119.003 1658.22 119.358 1658.43C119.722 1658.64 120.104 1658.74 120.506 1658.74C120.916 1658.74 121.299 1658.64 121.654 1658.43C122.008 1658.23 122.293 1657.93 122.508 1657.54C122.732 1657.13 122.844 1656.67 122.844 1656.14ZM133.494 1652.29L128.762 1663.63H127.11L128.678 1659.87L125.64 1652.29H127.418L129.588 1658.17L131.842 1652.29H133.494ZM141.541 1660.1C140.888 1660.1 140.3 1659.99 139.777 1659.76C139.254 1659.53 138.844 1659.2 138.545 1658.78C138.246 1658.36 138.097 1657.87 138.097 1657.31H139.805C139.842 1657.73 140.006 1658.08 140.295 1658.35C140.594 1658.62 141.009 1658.75 141.541 1658.75C142.092 1658.75 142.521 1658.62 142.829 1658.36C143.137 1658.09 143.291 1657.75 143.291 1657.33C143.291 1657 143.193 1656.73 142.997 1656.53C142.81 1656.32 142.572 1656.16 142.283 1656.05C142.003 1655.94 141.611 1655.82 141.107 1655.69C140.472 1655.52 139.954 1655.35 139.553 1655.18C139.161 1655.01 138.825 1654.74 138.545 1654.37C138.265 1654.01 138.125 1653.52 138.125 1652.92C138.125 1652.36 138.265 1651.87 138.545 1651.45C138.825 1651.03 139.217 1650.7 139.721 1650.48C140.225 1650.26 140.808 1650.14 141.471 1650.14C142.414 1650.14 143.184 1650.38 143.781 1650.86C144.388 1651.32 144.724 1651.97 144.789 1652.79H143.025C142.997 1652.44 142.829 1652.13 142.521 1651.88C142.213 1651.63 141.807 1651.5 141.303 1651.5C140.846 1651.5 140.472 1651.62 140.183 1651.85C139.894 1652.09 139.749 1652.42 139.749 1652.86C139.749 1653.16 139.838 1653.41 140.015 1653.6C140.202 1653.79 140.435 1653.94 140.715 1654.05C140.995 1654.16 141.378 1654.28 141.863 1654.41C142.507 1654.59 143.03 1654.77 143.431 1654.95C143.842 1655.12 144.187 1655.4 144.467 1655.77C144.756 1656.14 144.901 1656.63 144.901 1657.24C144.901 1657.74 144.766 1658.2 144.495 1658.64C144.234 1659.08 143.846 1659.44 143.333 1659.71C142.829 1659.97 142.232 1660.1 141.541 1660.1ZM153.854 1655.95C153.854 1656.24 153.836 1656.5 153.798 1656.74H147.904C147.951 1657.35 148.18 1657.85 148.59 1658.22C149.001 1658.6 149.505 1658.78 150.102 1658.78C150.961 1658.78 151.568 1658.42 151.922 1657.7H153.644C153.411 1658.41 152.986 1659 152.37 1659.45C151.764 1659.9 151.008 1660.13 150.102 1660.13C149.365 1660.13 148.702 1659.96 148.114 1659.64C147.536 1659.3 147.078 1658.83 146.742 1658.24C146.416 1657.63 146.252 1656.93 146.252 1656.14C146.252 1655.34 146.411 1654.65 146.728 1654.05C147.055 1653.44 147.508 1652.98 148.086 1652.65C148.674 1652.32 149.346 1652.16 150.102 1652.16C150.83 1652.16 151.479 1652.32 152.048 1652.64C152.618 1652.95 153.061 1653.4 153.378 1653.98C153.696 1654.55 153.854 1655.21 153.854 1655.95ZM152.188 1655.45C152.179 1654.86 151.969 1654.39 151.558 1654.04C151.148 1653.68 150.639 1653.5 150.032 1653.5C149.482 1653.5 149.01 1653.68 148.618 1654.04C148.226 1654.38 147.993 1654.85 147.918 1655.45H152.188ZM157.021 1653.41C157.254 1653.01 157.562 1652.71 157.945 1652.5C158.337 1652.27 158.799 1652.16 159.331 1652.16V1653.81H158.925C158.3 1653.81 157.824 1653.97 157.497 1654.29C157.18 1654.61 157.021 1655.16 157.021 1655.94V1660H155.425V1652.29H157.021V1653.41ZM163.78 1658.57L165.964 1652.29H167.658L164.718 1660H162.814L159.888 1652.29H161.596L163.78 1658.57ZM175.934 1655.95C175.934 1656.24 175.916 1656.5 175.878 1656.74H169.984C170.031 1657.35 170.26 1657.85 170.67 1658.22C171.081 1658.6 171.585 1658.78 172.182 1658.78C173.041 1658.78 173.648 1658.42 174.002 1657.7H175.724C175.491 1658.41 175.066 1659 174.45 1659.45C173.844 1659.9 173.088 1660.13 172.182 1660.13C171.445 1660.13 170.782 1659.96 170.194 1659.64C169.616 1659.3 169.158 1658.83 168.822 1658.24C168.496 1657.63 168.332 1656.93 168.332 1656.14C168.332 1655.34 168.491 1654.65 168.808 1654.05C169.135 1653.44 169.588 1652.98 170.166 1652.65C170.754 1652.32 171.426 1652.16 172.182 1652.16C172.91 1652.16 173.559 1652.32 174.128 1652.64C174.698 1652.95 175.141 1653.4 175.458 1653.98C175.776 1654.55 175.934 1655.21 175.934 1655.95ZM174.268 1655.45C174.259 1654.86 174.049 1654.39 173.638 1654.04C173.228 1653.68 172.719 1653.5 172.112 1653.5C171.562 1653.5 171.09 1653.68 170.698 1654.04C170.306 1654.38 170.073 1654.85 169.998 1655.45H174.268ZM179.101 1653.41C179.334 1653.01 179.642 1652.71 180.025 1652.5C180.417 1652.27 180.879 1652.16 181.411 1652.16V1653.81H181.005C180.38 1653.81 179.904 1653.97 179.577 1654.29C179.26 1654.61 179.101 1655.16 179.101 1655.94V1660H177.505V1652.29H179.101V1653.41Z" fill="#4973EB"/>
<path d="M219.756 1660.1C219.103 1660.1 218.515 1659.99 217.992 1659.76C217.469 1659.53 217.059 1659.2 216.76 1658.78C216.461 1658.36 216.312 1657.87 216.312 1657.31H218.02C218.057 1657.73 218.221 1658.08 218.51 1658.35C218.809 1658.62 219.224 1658.75 219.756 1658.75C220.307 1658.75 220.736 1658.62 221.044 1658.36C221.352 1658.09 221.506 1657.75 221.506 1657.33C221.506 1657 221.408 1656.73 221.212 1656.53C221.025 1656.32 220.787 1656.16 220.498 1656.05C220.218 1655.94 219.826 1655.82 219.322 1655.69C218.687 1655.52 218.169 1655.35 217.768 1655.18C217.376 1655.01 217.04 1654.74 216.76 1654.37C216.48 1654.01 216.34 1653.52 216.34 1652.92C216.34 1652.36 216.48 1651.87 216.76 1651.45C217.04 1651.03 217.432 1650.7 217.936 1650.48C218.44 1650.26 219.023 1650.14 219.686 1650.14C220.629 1650.14 221.399 1650.38 221.996 1650.86C222.603 1651.32 222.939 1651.97 223.004 1652.79H221.24C221.212 1652.44 221.044 1652.13 220.736 1651.88C220.428 1651.63 220.022 1651.5 219.518 1651.5C219.061 1651.5 218.687 1651.62 218.398 1651.85C218.109 1652.09 217.964 1652.42 217.964 1652.86C217.964 1653.16 218.053 1653.41 218.23 1653.6C218.417 1653.79 218.65 1653.94 218.93 1654.05C219.21 1654.16 219.593 1654.28 220.078 1654.41C220.722 1654.59 221.245 1654.77 221.646 1654.95C222.057 1655.12 222.402 1655.4 222.682 1655.77C222.971 1656.14 223.116 1656.63 223.116 1657.24C223.116 1657.74 222.981 1658.2 222.71 1658.64C222.449 1659.08 222.061 1659.44 221.548 1659.71C221.044 1659.97 220.447 1660.1 219.756 1660.1ZM231.985 1652.29V1660H230.389V1659.09C230.137 1659.41 229.806 1659.66 229.395 1659.85C228.994 1660.02 228.565 1660.11 228.107 1660.11C227.501 1660.11 226.955 1659.99 226.469 1659.73C225.993 1659.48 225.615 1659.11 225.335 1658.61C225.065 1658.12 224.929 1657.52 224.929 1656.82V1652.29H226.511V1656.58C226.511 1657.27 226.684 1657.81 227.029 1658.18C227.375 1658.54 227.846 1658.73 228.443 1658.73C229.041 1658.73 229.512 1658.54 229.857 1658.18C230.212 1657.81 230.389 1657.27 230.389 1656.58V1652.29H231.985ZM235.687 1653.42C235.958 1653.07 236.326 1652.77 236.793 1652.52C237.26 1652.28 237.787 1652.16 238.375 1652.16C239.047 1652.16 239.658 1652.33 240.209 1652.66C240.769 1652.99 241.208 1653.45 241.525 1654.05C241.842 1654.65 242.001 1655.33 242.001 1656.11C242.001 1656.88 241.842 1657.58 241.525 1658.19C241.208 1658.8 240.769 1659.28 240.209 1659.62C239.658 1659.96 239.047 1660.13 238.375 1660.13C237.787 1660.13 237.264 1660.01 236.807 1659.78C236.35 1659.53 235.976 1659.23 235.687 1658.88V1663.67H234.091V1652.29H235.687V1653.42ZM240.377 1656.11C240.377 1655.58 240.265 1655.12 240.041 1654.74C239.826 1654.34 239.537 1654.05 239.173 1653.85C238.818 1653.65 238.436 1653.55 238.025 1653.55C237.624 1653.55 237.241 1653.65 236.877 1653.85C236.522 1654.06 236.233 1654.36 236.009 1654.75C235.794 1655.14 235.687 1655.6 235.687 1656.14C235.687 1656.67 235.794 1657.13 236.009 1657.54C236.233 1657.93 236.522 1658.23 236.877 1658.43C237.241 1658.64 237.624 1658.74 238.025 1658.74C238.436 1658.74 238.818 1658.64 239.173 1658.43C239.537 1658.22 239.826 1657.91 240.041 1657.51C240.265 1657.11 240.377 1656.64 240.377 1656.11ZM245.175 1653.42C245.446 1653.07 245.815 1652.77 246.281 1652.52C246.748 1652.28 247.275 1652.16 247.863 1652.16C248.535 1652.16 249.147 1652.33 249.697 1652.66C250.257 1652.99 250.696 1653.45 251.013 1654.05C251.331 1654.65 251.489 1655.33 251.489 1656.11C251.489 1656.88 251.331 1657.58 251.013 1658.19C250.696 1658.8 250.257 1659.28 249.697 1659.62C249.147 1659.96 248.535 1660.13 247.863 1660.13C247.275 1660.13 246.753 1660.01 246.295 1659.78C245.838 1659.53 245.465 1659.23 245.175 1658.88V1663.67H243.579V1652.29H245.175V1653.42ZM249.865 1656.11C249.865 1655.58 249.753 1655.12 249.529 1654.74C249.315 1654.34 249.025 1654.05 248.661 1653.85C248.307 1653.65 247.924 1653.55 247.513 1653.55C247.112 1653.55 246.729 1653.65 246.365 1653.85C246.011 1654.06 245.721 1654.36 245.497 1654.75C245.283 1655.14 245.175 1655.6 245.175 1656.14C245.175 1656.67 245.283 1657.13 245.497 1657.54C245.721 1657.93 246.011 1658.23 246.365 1658.43C246.729 1658.64 247.112 1658.74 247.513 1658.74C247.924 1658.74 248.307 1658.64 248.661 1658.43C249.025 1658.22 249.315 1657.91 249.529 1657.51C249.753 1657.11 249.865 1656.64 249.865 1656.11ZM256.414 1660.13C255.686 1660.13 255.028 1659.96 254.44 1659.64C253.852 1659.3 253.39 1658.83 253.054 1658.24C252.718 1657.63 252.55 1656.93 252.55 1656.14C252.55 1655.35 252.722 1654.66 253.068 1654.05C253.413 1653.44 253.884 1652.98 254.482 1652.65C255.079 1652.32 255.746 1652.16 256.484 1652.16C257.221 1652.16 257.888 1652.32 258.486 1652.65C259.083 1652.98 259.554 1653.44 259.9 1654.05C260.245 1654.66 260.418 1655.35 260.418 1656.14C260.418 1656.92 260.24 1657.62 259.886 1658.22C259.531 1658.83 259.046 1659.3 258.43 1659.64C257.823 1659.96 257.151 1660.13 256.414 1660.13ZM256.414 1658.74C256.824 1658.74 257.207 1658.64 257.562 1658.45C257.926 1658.25 258.22 1657.96 258.444 1657.56C258.668 1657.17 258.78 1656.7 258.78 1656.14C258.78 1655.58 258.672 1655.1 258.458 1654.72C258.243 1654.33 257.958 1654.04 257.604 1653.84C257.249 1653.64 256.866 1653.55 256.456 1653.55C256.045 1653.55 255.662 1653.64 255.308 1653.84C254.962 1654.04 254.687 1654.33 254.482 1654.72C254.276 1655.1 254.174 1655.58 254.174 1656.14C254.174 1656.97 254.384 1657.61 254.804 1658.07C255.233 1658.52 255.77 1658.74 256.414 1658.74ZM263.591 1653.41C263.825 1653.01 264.133 1652.71 264.515 1652.5C264.907 1652.27 265.369 1652.16 265.901 1652.16V1653.81H265.495C264.87 1653.81 264.394 1653.97 264.067 1654.29C263.75 1654.61 263.591 1655.16 263.591 1655.94V1660H261.995V1652.29H263.591V1653.41ZM269.23 1653.59V1657.86C269.23 1658.15 269.296 1658.36 269.426 1658.49C269.566 1658.61 269.8 1658.67 270.126 1658.67H271.106V1660H269.846C269.128 1660 268.577 1659.83 268.194 1659.5C267.812 1659.16 267.62 1658.61 267.62 1657.86V1653.59H266.71V1652.29H267.62V1650.37H269.23V1652.29H271.106V1653.59H269.23Z" fill="#4973EB"/>
<path d="M306.018 1655.11C306.018 1654.16 306.237 1653.31 306.676 1652.55C307.124 1651.8 307.726 1651.21 308.482 1650.79C309.247 1650.36 310.083 1650.14 310.988 1650.14C312.024 1650.14 312.943 1650.4 313.746 1650.91C314.558 1651.42 315.146 1652.14 315.51 1653.07H313.592C313.34 1652.56 312.99 1652.17 312.542 1651.92C312.094 1651.67 311.576 1651.54 310.988 1651.54C310.344 1651.54 309.77 1651.69 309.266 1651.98C308.762 1652.27 308.365 1652.68 308.076 1653.22C307.796 1653.77 307.656 1654.4 307.656 1655.11C307.656 1655.83 307.796 1656.46 308.076 1657C308.365 1657.55 308.762 1657.97 309.266 1658.26C309.77 1658.55 310.344 1658.7 310.988 1658.7C311.576 1658.7 312.094 1658.57 312.542 1658.32C312.99 1658.07 313.34 1657.69 313.592 1657.17H315.51C315.146 1658.11 314.558 1658.82 313.746 1659.33C312.943 1659.83 312.024 1660.08 310.988 1660.08C310.073 1660.08 309.238 1659.87 308.482 1659.45C307.726 1659.02 307.124 1658.43 306.676 1657.68C306.237 1656.92 306.018 1656.07 306.018 1655.11ZM320.724 1660.13C319.996 1660.13 319.338 1659.96 318.75 1659.64C318.162 1659.3 317.7 1658.83 317.364 1658.24C317.028 1657.63 316.86 1656.93 316.86 1656.14C316.86 1655.35 317.033 1654.66 317.378 1654.05C317.723 1653.44 318.195 1652.98 318.792 1652.65C319.389 1652.32 320.057 1652.16 320.794 1652.16C321.531 1652.16 322.199 1652.32 322.796 1652.65C323.393 1652.98 323.865 1653.44 324.21 1654.05C324.555 1654.66 324.728 1655.35 324.728 1656.14C324.728 1656.92 324.551 1657.62 324.196 1658.22C323.841 1658.83 323.356 1659.3 322.74 1659.64C322.133 1659.96 321.461 1660.13 320.724 1660.13ZM320.724 1658.74C321.135 1658.74 321.517 1658.64 321.872 1658.45C322.236 1658.25 322.53 1657.96 322.754 1657.56C322.978 1657.17 323.09 1656.7 323.09 1656.14C323.09 1655.58 322.983 1655.1 322.768 1654.72C322.553 1654.33 322.269 1654.04 321.914 1653.84C321.559 1653.64 321.177 1653.55 320.766 1653.55C320.355 1653.55 319.973 1653.64 319.618 1653.84C319.273 1654.04 318.997 1654.33 318.792 1654.72C318.587 1655.1 318.484 1655.58 318.484 1656.14C318.484 1656.97 318.694 1657.61 319.114 1658.07C319.543 1658.52 320.08 1658.74 320.724 1658.74ZM330.198 1652.16C330.805 1652.16 331.346 1652.29 331.822 1652.54C332.307 1652.79 332.685 1653.16 332.956 1653.66C333.227 1654.15 333.362 1654.75 333.362 1655.45V1660H331.78V1655.69C331.78 1655 331.607 1654.47 331.262 1654.11C330.917 1653.73 330.445 1653.55 329.848 1653.55C329.251 1653.55 328.775 1653.73 328.42 1654.11C328.075 1654.47 327.902 1655 327.902 1655.69V1660H326.306V1652.29H327.902V1653.17C328.163 1652.85 328.495 1652.6 328.896 1652.43C329.307 1652.25 329.741 1652.16 330.198 1652.16ZM337.26 1653.59V1657.86C337.26 1658.15 337.325 1658.36 337.456 1658.49C337.596 1658.61 337.829 1658.67 338.156 1658.67H339.136V1660H337.876C337.157 1660 336.606 1659.83 336.224 1659.5C335.841 1659.16 335.65 1658.61 335.65 1657.86V1653.59H334.74V1652.29H335.65V1650.37H337.26V1652.29H339.136V1653.59H337.26ZM340.075 1656.11C340.075 1655.33 340.233 1654.65 340.551 1654.05C340.877 1653.45 341.316 1652.99 341.867 1652.66C342.427 1652.33 343.043 1652.16 343.715 1652.16C344.321 1652.16 344.849 1652.28 345.297 1652.52C345.754 1652.76 346.118 1653.05 346.389 1653.41V1652.29H347.999V1660H346.389V1658.85C346.118 1659.22 345.749 1659.52 345.283 1659.76C344.816 1660 344.284 1660.13 343.687 1660.13C343.024 1660.13 342.417 1659.96 341.867 1659.62C341.316 1659.28 340.877 1658.8 340.551 1658.19C340.233 1657.58 340.075 1656.88 340.075 1656.11ZM346.389 1656.14C346.389 1655.6 346.277 1655.14 346.053 1654.75C345.838 1654.36 345.553 1654.06 345.199 1653.85C344.844 1653.65 344.461 1653.55 344.051 1653.55C343.64 1653.55 343.257 1653.65 342.903 1653.85C342.548 1654.05 342.259 1654.34 342.035 1654.74C341.82 1655.12 341.713 1655.58 341.713 1656.11C341.713 1656.64 341.82 1657.11 342.035 1657.51C342.259 1657.91 342.548 1658.22 342.903 1658.43C343.267 1658.64 343.649 1658.74 344.051 1658.74C344.461 1658.74 344.844 1658.64 345.199 1658.43C345.553 1658.23 345.838 1657.93 346.053 1657.54C346.277 1657.13 346.389 1656.67 346.389 1656.14ZM349.563 1656.14C349.563 1655.34 349.722 1654.65 350.039 1654.05C350.366 1653.44 350.814 1652.98 351.383 1652.65C351.952 1652.32 352.606 1652.16 353.343 1652.16C354.276 1652.16 355.046 1652.38 355.653 1652.83C356.269 1653.27 356.684 1653.9 356.899 1654.72H355.177C355.037 1654.34 354.813 1654.04 354.505 1653.83C354.197 1653.61 353.81 1653.5 353.343 1653.5C352.69 1653.5 352.167 1653.74 351.775 1654.2C351.392 1654.66 351.201 1655.31 351.201 1656.14C351.201 1656.97 351.392 1657.62 351.775 1658.08C352.167 1658.55 352.69 1658.78 353.343 1658.78C354.267 1658.78 354.878 1658.38 355.177 1657.56H356.899C356.675 1658.35 356.255 1658.97 355.639 1659.44C355.023 1659.9 354.258 1660.13 353.343 1660.13C352.606 1660.13 351.952 1659.96 351.383 1659.64C350.814 1659.3 350.366 1658.83 350.039 1658.24C349.722 1657.63 349.563 1656.93 349.563 1656.14ZM360.351 1653.59V1657.86C360.351 1658.15 360.417 1658.36 360.547 1658.49C360.687 1658.61 360.921 1658.67 361.247 1658.67H362.227V1660H360.967C360.249 1660 359.698 1659.83 359.315 1659.5C358.933 1659.16 358.741 1658.61 358.741 1657.86V1653.59H357.831V1652.29H358.741V1650.37H360.351V1652.29H362.227V1653.59H360.351Z" fill="#4973EB"/>
<circle cx="12" cy="486" r="5" fill="#FFD30A"/>
<circle cx="362.5" cy="394.5" r="12.5" fill="#FAFFFA" fill-opacity="0.38"/>
<circle cx="26" cy="191" r="9" fill="#FAFFFA" fill-opacity="0.38"/>
<circle cx="241" cy="510" r="9" fill="#FAFFFA" fill-opacity="0.38"/>
<circle cx="391" cy="852" r="9" fill="#FAFFFA" fill-opacity="0.38"/>
<circle cx="10.5" cy="50.5" r="6.5" fill="#FAFFFA" fill-opacity="0.38"/>
<circle cx="4.76268" cy="835.763" r="18.0077" transform="rotate(-23.9214 4.76268 835.763)" fill="#70B997"/>
<path d="M11.5502 836.733C11.8746 837.464 11.9967 838.232 11.9165 839.038C11.851 839.837 11.5645 840.612 11.0571 841.362C10.5643 842.106 9.86209 842.733 8.95035 843.242L9.73861 845.019L8.31261 845.652L7.52435 843.875C6.09115 844.353 4.78821 844.414 3.61554 844.059C2.44287 843.704 1.59053 842.927 1.05854 841.728L3.73503 840.541C4.03193 841.092 4.4256 841.486 4.91605 841.723C5.4 841.946 5.96451 841.976 6.60958 841.812L4.46862 836.986C3.37842 837.172 2.47103 837.277 1.74646 837.301C1.0154 837.31 0.307223 837.134 -0.378081 836.773C-1.04876 836.405 -1.59819 835.739 -2.02638 834.773C-2.56487 833.559 -2.58513 832.369 -2.08718 831.203C-1.59572 830.023 -0.691781 829.062 0.624639 828.32L-0.163622 826.543L1.26238 825.911L2.05064 827.688C3.3896 827.234 4.60236 827.186 5.68893 827.544C6.78364 827.881 7.65142 828.634 8.29229 829.802L5.61579 830.99C5.3708 830.556 5.01688 830.231 4.55403 830.017C4.0847 829.787 3.56489 829.72 2.9946 829.816L5.09663 834.554C6.18035 834.354 7.08774 834.249 7.8188 834.239C8.54337 834.216 9.24099 834.388 9.91167 834.755C10.5759 835.108 11.122 835.767 11.5502 836.733ZM0.460088 833.513C0.726086 834.113 1.1092 834.503 1.60943 834.683C2.12429 834.858 2.75621 834.901 3.5052 834.814L1.53941 830.382C0.942946 830.734 0.538922 831.185 0.327337 831.734C0.130377 832.276 0.174627 832.869 0.460088 833.513ZM8.03558 841.18C8.63369 840.792 9.02474 840.312 9.20873 839.74C9.38622 839.154 9.34522 838.568 9.08571 837.983C8.8262 837.398 8.44226 837.026 7.93388 836.866C7.43365 836.686 6.80904 836.639 6.06006 836.726L8.03558 841.18Z" fill="white"/>
<circle cx="366" cy="1208" r="31" fill="#FAFFFA" fill-opacity="0.19"/>
<circle cx="86.5" cy="1562.5" r="11.5" fill="#FAFFFA" fill-opacity="0.19"/>
<circle cy="1395" r="7" fill="#FFD30A"/>
</g>
<defs>
<clipPath id="clip0">
<rect width="390" height="1696" fill="white"/>
</clipPath>
<clipPath id="clip1">
<rect width="46.6083" height="46.6083" fill="white" transform="translate(356.868 221.19) rotate(2.29697)"/>
</clipPath>
</defs>
</svg>
