<svg width="1440" height="912" viewBox="0 0 1440 912" fill="none" xmlns="http://www.w3.org/2000/svg">
<g clip-path="url(#clip0)">
<circle cx="889.5" cy="504.5" r="7.5" fill="#FFFAFC"/>
<g clip-path="url(#clip1)">
<path d="M157.774 277.845C153.682 291.843 139.012 299.864 125.033 295.773C111.034 291.681 103.013 277.011 107.105 263.033C111.196 249.034 125.846 241.012 139.845 245.105C153.825 249.175 161.866 263.846 157.774 277.845Z" fill="#F8F9FD"/>
<path d="M145.131 267.655C145.787 264.172 143.204 262.169 139.586 260.765L140.973 256.052L138.116 255.215L136.776 259.806C136.021 259.59 135.245 259.373 134.469 259.177L135.809 254.565L132.953 253.728L131.588 258.421C130.955 258.251 130.343 258.082 129.751 257.914L129.751 257.893L125.793 256.744L124.906 259.805C124.906 259.805 127.03 260.385 126.988 260.404C128.151 260.74 128.326 261.531 128.26 262.148L126.682 267.514C126.764 267.538 126.866 267.562 126.987 267.629C126.885 267.605 126.783 267.58 126.681 267.534L124.481 275.043C124.323 275.387 123.93 275.908 123.135 275.67C123.153 275.712 121.053 275.07 121.053 275.07L119.477 278.331L123.211 279.43C123.904 279.644 124.578 279.836 125.25 280.049L123.862 284.803L126.719 285.64L128.105 280.927C128.88 281.164 129.655 281.402 130.389 281.617L129.024 286.31L131.881 287.147L133.269 282.393C138.178 283.519 141.903 283.297 143.628 278.887C145.029 275.351 143.793 273.216 141.251 271.752C143.185 271.396 144.658 270.196 145.131 267.655V267.655ZM138.143 276.664C137.113 280.215 131.132 278.034 129.194 277.461L131.036 271.156C132.974 271.73 139.242 272.951 138.143 276.664ZM139.425 267.364C138.469 270.608 133.507 268.737 131.895 268.26L133.57 262.547C135.181 263.024 140.406 263.998 139.425 267.364Z" fill="#4973EB"/>
</g>
<circle cx="98" cy="142" r="7" fill="#FFD30A"/>
<circle cx="890.5" cy="140.5" r="3.5" fill="#FFD100"/>
<circle cx="644.5" cy="12.5" r="4.5" fill="#70B997"/>
<circle cx="410" cy="78" r="12" fill="#FAFFFA" fill-opacity="0.66"/>
<circle cx="1315.5" cy="5.5" r="15.5" fill="#315FDD"/>
<circle cx="186" cy="345" r="14" fill="#FAFFFA" fill-opacity="0.38"/>
<circle cx="150" cy="714" r="31" fill="#FAFFFA" fill-opacity="0.19"/>
<circle cx="76.7634" cy="476.159" r="18.0077" transform="rotate(-23.9214 76.7634 476.159)" fill="#70B997"/>
<path d="M83.551 477.129C83.8754 477.86 83.9975 478.629 83.9173 479.434C83.8517 480.234 83.5653 481.008 83.0579 481.758C82.5651 482.502 81.8628 483.129 80.9511 483.638L81.7393 485.415L80.3133 486.048L79.5251 484.271C78.0919 484.749 76.7889 484.811 75.6163 484.456C74.4436 484.101 73.5913 483.323 73.0593 482.124L75.7358 480.937C76.0327 481.488 76.4263 481.882 76.9168 482.12C77.4007 482.343 77.9652 482.372 78.6103 482.209L76.4694 477.382C75.3791 477.568 74.4718 477.673 73.7472 477.697C73.0161 477.706 72.308 477.53 71.6227 477.169C70.952 476.801 70.4025 476.135 69.9743 475.17C69.4359 473.956 69.4156 472.766 69.9135 471.6C70.405 470.419 71.309 469.458 72.6254 468.716L71.8371 466.939L73.2631 466.307L74.0514 468.084C75.3903 467.63 76.6031 467.582 77.6897 467.94C78.7844 468.277 79.6522 469.03 80.293 470.199L77.6165 471.386C77.3715 470.952 77.0176 470.628 76.5548 470.413C76.0854 470.183 75.5656 470.116 74.9953 470.212L77.0974 474.951C78.1811 474.75 79.0885 474.645 79.8195 474.636C80.5441 474.612 81.2417 474.784 81.9124 475.151C82.5766 475.504 83.1228 476.164 83.551 477.129ZM72.4608 473.909C72.7268 474.509 73.1099 474.899 73.6102 475.08C74.125 475.254 74.7569 475.297 75.5059 475.21L73.5401 470.779C72.9437 471.131 72.5397 471.581 72.3281 472.13C72.1311 472.673 72.1754 473.266 72.4608 473.909ZM80.0363 481.576C80.6344 481.188 81.0255 480.708 81.2095 480.137C81.387 479.55 81.3459 478.965 81.0864 478.38C80.8269 477.795 80.443 477.422 79.9346 477.263C79.4344 477.082 78.8098 477.035 78.0608 477.122L80.0363 481.576Z" fill="white"/>
</g>
<defs>
<clipPath id="clip0">
<rect width="1440" height="912" fill="white"/>
</clipPath>
<clipPath id="clip1">
<rect width="52.8035" height="52.8035" fill="white" transform="translate(107.116 243) rotate(2.29697)"/>
</clipPath>
</defs>
</svg>
