<svg width="160" height="29" viewBox="0 0 160 29" fill="none" xmlns="http://www.w3.org/2000/svg">
<path d="M0.98 11.2C0.98 9.27733 1.40933 7.56 2.268 6.048C3.14533 4.51733 4.33067 3.332 5.824 2.492C7.336 1.63333 9.02533 1.204 10.892 1.204C13.076 1.204 14.9893 1.764 16.632 2.884C18.2747 4.004 19.4227 5.55333 20.076 7.532H15.568C15.12 6.59867 14.4853 5.89867 13.664 5.432C12.8613 4.96533 11.928 4.732 10.864 4.732C9.72533 4.732 8.708 5.00267 7.812 5.544C6.93467 6.06667 6.244 6.81333 5.74 7.784C5.25467 8.75467 5.012 9.89333 5.012 11.2C5.012 12.488 5.25467 13.6267 5.74 14.616C6.244 15.5867 6.93467 16.3427 7.812 16.884C8.708 17.4067 9.72533 17.668 10.864 17.668C11.928 17.668 12.8613 17.4347 13.664 16.968C14.4853 16.4827 15.12 15.7733 15.568 14.84H20.076C19.4227 16.8373 18.2747 18.396 16.632 19.516C15.008 20.6173 13.0947 21.168 10.892 21.168C9.02533 21.168 7.336 20.748 5.824 19.908C4.33067 19.0493 3.14533 17.864 2.268 16.352C1.40933 14.84 0.98 13.1227 0.98 11.2ZM27.3442 7.896C27.8482 7.07467 28.5015 6.43067 29.3042 5.964C30.1255 5.49733 31.0589 5.264 32.1042 5.264V9.38H31.0682C29.8362 9.38 28.9029 9.66933 28.2682 10.248C27.6522 10.8267 27.3442 11.8347 27.3442 13.272V21H23.4242V5.488H27.3442V7.896ZM49.5845 5.488L39.9805 28.336H35.8085L39.1685 20.608L32.9525 5.488H37.3485L41.3525 16.324L45.4125 5.488H49.5845ZM55.6176 7.728C56.1216 7.01867 56.8123 6.43067 57.6896 5.964C58.5856 5.47867 59.603 5.236 60.7416 5.236C62.067 5.236 63.2616 5.56267 64.3256 6.216C65.4083 6.86933 66.2576 7.80267 66.8736 9.016C67.5083 10.2107 67.8256 11.6013 67.8256 13.188C67.8256 14.7747 67.5083 16.184 66.8736 17.416C66.2576 18.6293 65.4083 19.572 64.3256 20.244C63.2616 20.916 62.067 21.252 60.7416 21.252C59.603 21.252 58.595 21.0187 57.7176 20.552C56.859 20.0853 56.159 19.4973 55.6176 18.788V28.392H51.6976V5.488H55.6176V7.728ZM63.8216 13.188C63.8216 12.2547 63.6256 11.452 63.2336 10.78C62.8603 10.0893 62.3563 9.56667 61.7216 9.212C61.1056 8.85733 60.4336 8.68 59.7056 8.68C58.9963 8.68 58.3243 8.86667 57.6896 9.24C57.0736 9.59467 56.5696 10.1173 56.1776 10.808C55.8043 11.4987 55.6176 12.3107 55.6176 13.244C55.6176 14.1773 55.8043 14.9893 56.1776 15.68C56.5696 16.3707 57.0736 16.9027 57.6896 17.276C58.3243 17.6307 58.9963 17.808 59.7056 17.808C60.4336 17.808 61.1056 17.6213 61.7216 17.248C62.3563 16.8747 62.8603 16.3427 63.2336 15.652C63.6256 14.9613 63.8216 14.14 63.8216 13.188ZM75.2382 8.708V16.212C75.2382 16.7347 75.3595 17.1173 75.6022 17.36C75.8635 17.584 76.2929 17.696 76.8902 17.696H78.7102V21H76.2462C72.9422 21 71.2902 19.3947 71.2902 16.184V8.708H69.4422V5.488H71.2902V1.652H75.2382V5.488H78.7102V8.708H75.2382ZM88.4177 21.252C86.9243 21.252 85.5803 20.9253 84.3857 20.272C83.191 19.6 82.2483 18.6573 81.5577 17.444C80.8857 16.2307 80.5497 14.8307 80.5497 13.244C80.5497 11.6573 80.895 10.2573 81.5857 9.044C82.295 7.83067 83.2563 6.89733 84.4697 6.244C85.683 5.572 87.0363 5.236 88.5297 5.236C90.023 5.236 91.3763 5.572 92.5897 6.244C93.803 6.89733 94.755 7.83067 95.4457 9.044C96.155 10.2573 96.5097 11.6573 96.5097 13.244C96.5097 14.8307 96.1457 16.2307 95.4177 17.444C94.7083 18.6573 93.7377 19.6 92.5057 20.272C91.2923 20.9253 89.9297 21.252 88.4177 21.252ZM88.4177 17.836C89.127 17.836 89.7897 17.668 90.4057 17.332C91.0403 16.9773 91.5443 16.4547 91.9177 15.764C92.291 15.0733 92.4777 14.2333 92.4777 13.244C92.4777 11.7693 92.0857 10.64 91.3017 9.856C90.5363 9.05333 89.5937 8.652 88.4737 8.652C87.3537 8.652 86.411 9.05333 85.6457 9.856C84.899 10.64 84.5257 11.7693 84.5257 13.244C84.5257 14.7187 84.8897 15.8573 85.6177 16.66C86.3643 17.444 87.2977 17.836 88.4177 17.836ZM108.121 5.264C109.297 5.264 110.342 5.52533 111.257 6.048C112.172 6.552 112.881 7.308 113.385 8.316C113.908 9.30533 114.169 10.5 114.169 11.9V21H110.249V12.432C110.249 11.2 109.941 10.2573 109.325 9.604C108.709 8.932 107.869 8.596 106.805 8.596C105.722 8.596 104.864 8.932 104.229 9.604C103.613 10.2573 103.305 11.2 103.305 12.432V21H99.3851V0.28H103.305V7.42C103.809 6.748 104.481 6.22533 105.321 5.852C106.161 5.46 107.094 5.264 108.121 5.264ZM124.785 21.252C123.292 21.252 121.948 20.9253 120.753 20.272C119.558 19.6 118.616 18.6573 117.925 17.444C117.253 16.2307 116.917 14.8307 116.917 13.244C116.917 11.6573 117.262 10.2573 117.953 9.044C118.662 7.83067 119.624 6.89733 120.837 6.244C122.05 5.572 123.404 5.236 124.897 5.236C126.39 5.236 127.744 5.572 128.957 6.244C130.17 6.89733 131.122 7.83067 131.813 9.044C132.522 10.2573 132.877 11.6573 132.877 13.244C132.877 14.8307 132.513 16.2307 131.785 17.444C131.076 18.6573 130.105 19.6 128.873 20.272C127.66 20.9253 126.297 21.252 124.785 21.252ZM124.785 17.836C125.494 17.836 126.157 17.668 126.773 17.332C127.408 16.9773 127.912 16.4547 128.285 15.764C128.658 15.0733 128.845 14.2333 128.845 13.244C128.845 11.7693 128.453 10.64 127.669 9.856C126.904 9.05333 125.961 8.652 124.841 8.652C123.721 8.652 122.778 9.05333 122.013 9.856C121.266 10.64 120.893 11.7693 120.893 13.244C120.893 14.7187 121.257 15.8573 121.985 16.66C122.732 17.444 123.665 17.836 124.785 17.836ZM141.688 21.252C140.419 21.252 139.28 21.028 138.272 20.58C137.264 20.1133 136.462 19.488 135.864 18.704C135.286 17.92 134.968 17.052 134.912 16.1H138.86C138.935 16.6973 139.224 17.192 139.728 17.584C140.251 17.976 140.895 18.172 141.66 18.172C142.407 18.172 142.986 18.0227 143.396 17.724C143.826 17.4253 144.04 17.0427 144.04 16.576C144.04 16.072 143.779 15.6987 143.256 15.456C142.752 15.1947 141.94 14.9147 140.82 14.616C139.663 14.336 138.711 14.0467 137.964 13.748C137.236 13.4493 136.602 12.992 136.06 12.376C135.538 11.76 135.276 10.9293 135.276 9.884C135.276 9.02533 135.519 8.24133 136.004 7.532C136.508 6.82267 137.218 6.26267 138.132 5.852C139.066 5.44133 140.158 5.236 141.408 5.236C143.256 5.236 144.731 5.70267 145.832 6.636C146.934 7.55067 147.54 8.792 147.652 10.36H143.9C143.844 9.744 143.583 9.25867 143.116 8.904C142.668 8.53067 142.062 8.344 141.296 8.344C140.587 8.344 140.036 8.47467 139.644 8.736C139.271 8.99733 139.084 9.36133 139.084 9.828C139.084 10.3507 139.346 10.752 139.868 11.032C140.391 11.2933 141.203 11.564 142.304 11.844C143.424 12.124 144.348 12.4133 145.076 12.712C145.804 13.0107 146.43 13.4773 146.952 14.112C147.494 14.728 147.774 15.5493 147.792 16.576C147.792 17.472 147.54 18.2747 147.036 18.984C146.551 19.6933 145.842 20.2533 144.908 20.664C143.994 21.056 142.92 21.252 141.688 21.252ZM155.574 8.708V16.212C155.574 16.7347 155.695 17.1173 155.938 17.36C156.199 17.584 156.629 17.696 157.226 17.696H159.046V21H156.582C153.278 21 151.626 19.3947 151.626 16.184V8.708H149.778V5.488H151.626V1.652H155.574V5.488H159.046V8.708H155.574Z" fill="#4973EB"/>
</svg>
