<svg width="148" height="27" viewBox="0 0 148 27" fill="none" xmlns="http://www.w3.org/2000/svg">
<path d="M0.91 10.9C0.91 9.11467 1.30867 7.52 2.106 6.116C2.92067 4.69467 4.02133 3.594 5.408 2.814C6.812 2.01667 8.38067 1.618 10.114 1.618C12.142 1.618 13.9187 2.138 15.444 3.178C16.9693 4.218 18.0353 5.65667 18.642 7.494H14.456C14.04 6.62733 13.4507 5.97733 12.688 5.544C11.9427 5.11067 11.076 4.894 10.088 4.894C9.03067 4.894 8.086 5.14533 7.254 5.648C6.43933 6.13333 5.798 6.82667 5.33 7.728C4.87933 8.62933 4.654 9.68667 4.654 10.9C4.654 12.096 4.87933 13.1533 5.33 14.072C5.798 14.9733 6.43933 15.6753 7.254 16.178C8.086 16.6633 9.03067 16.906 10.088 16.906C11.076 16.906 11.9427 16.6893 12.688 16.256C13.4507 15.8053 14.04 15.1467 14.456 14.28H18.642C18.0353 16.1347 16.9693 17.582 15.444 18.622C13.936 19.6447 12.1593 20.156 10.114 20.156C8.38067 20.156 6.812 19.766 5.408 18.986C4.02133 18.1887 2.92067 17.088 2.106 15.684C1.30867 14.28 0.91 12.6853 0.91 10.9ZM25.391 7.832C25.859 7.06933 26.4657 6.47133 27.211 6.038C27.9737 5.60467 28.8404 5.388 29.811 5.388V9.21H28.849C27.705 9.21 26.8384 9.47867 26.249 10.016C25.677 10.5533 25.391 11.4893 25.391 12.824V20H21.751V5.596H25.391V7.832ZM46.0428 5.596L37.1248 26.812H33.2508L36.3708 19.636L30.5988 5.596H34.6808L38.3988 15.658L42.1688 5.596H46.0428ZM51.6449 7.676C52.1129 7.01733 52.7543 6.47133 53.5689 6.038C54.4009 5.58733 55.3456 5.362 56.4029 5.362C57.6336 5.362 58.7429 5.66533 59.7309 6.272C60.7363 6.87867 61.5249 7.74533 62.0969 8.872C62.6863 9.98133 62.9809 11.2727 62.9809 12.746C62.9809 14.2193 62.6863 15.528 62.0969 16.672C61.5249 17.7987 60.7363 18.674 59.7309 19.298C58.7429 19.922 57.6336 20.234 56.4029 20.234C55.3456 20.234 54.4096 20.0173 53.5949 19.584C52.7976 19.1507 52.1476 18.6047 51.6449 17.946V26.864H48.0049V5.596H51.6449V7.676ZM59.2629 12.746C59.2629 11.8793 59.0809 11.134 58.7169 10.51C58.3703 9.86867 57.9023 9.38333 57.3129 9.054C56.7409 8.72467 56.1169 8.56 55.4409 8.56C54.7823 8.56 54.1583 8.73333 53.5689 9.08C52.9969 9.40933 52.5289 9.89467 52.1649 10.536C51.8183 11.1773 51.6449 11.9313 51.6449 12.798C51.6449 13.6647 51.8183 14.4187 52.1649 15.06C52.5289 15.7013 52.9969 16.1953 53.5689 16.542C54.1583 16.8713 54.7823 17.036 55.4409 17.036C56.1169 17.036 56.7409 16.8627 57.3129 16.516C57.9023 16.1693 58.3703 15.6753 58.7169 15.034C59.0809 14.3927 59.2629 13.63 59.2629 12.746ZM69.864 8.586V15.554C69.864 16.0393 69.9767 16.3947 70.202 16.62C70.4447 16.828 70.8434 16.932 71.398 16.932H73.088V20H70.8C67.732 20 66.198 18.5093 66.198 15.528V8.586H64.482V5.596H66.198V2.034H69.864V5.596H73.088V8.586H69.864ZM82.1021 20.234C80.7154 20.234 79.4674 19.9307 78.3581 19.324C77.2488 18.7 76.3734 17.8247 75.7321 16.698C75.1081 15.5713 74.7961 14.2713 74.7961 12.798C74.7961 11.3247 75.1168 10.0247 75.7581 8.898C76.4168 7.77133 77.3094 6.90467 78.4361 6.298C79.5628 5.674 80.8194 5.362 82.2061 5.362C83.5928 5.362 84.8494 5.674 85.9761 6.298C87.1028 6.90467 87.9868 7.77133 88.6281 8.898C89.2868 10.0247 89.6161 11.3247 89.6161 12.798C89.6161 14.2713 89.2781 15.5713 88.6021 16.698C87.9434 17.8247 87.0421 18.7 85.8981 19.324C84.7714 19.9307 83.5061 20.234 82.1021 20.234ZM82.1021 17.062C82.7608 17.062 83.3761 16.906 83.9481 16.594C84.5374 16.2647 85.0054 15.7793 85.3521 15.138C85.6988 14.4967 85.8721 13.7167 85.8721 12.798C85.8721 11.4287 85.5081 10.38 84.7801 9.652C84.0694 8.90667 83.1941 8.534 82.1541 8.534C81.1141 8.534 80.2388 8.90667 79.5281 9.652C78.8348 10.38 78.4881 11.4287 78.4881 12.798C78.4881 14.1673 78.8261 15.2247 79.5021 15.97C80.1954 16.698 81.0621 17.062 82.1021 17.062ZM100.398 5.388C101.49 5.388 102.461 5.63067 103.31 6.116C104.16 6.584 104.818 7.286 105.286 8.222C105.772 9.14067 106.014 10.25 106.014 11.55V20H102.374V12.044C102.374 10.9 102.088 10.0247 101.516 9.418C100.944 8.794 100.164 8.482 99.1762 8.482C98.1709 8.482 97.3735 8.794 96.7842 9.418C96.2122 10.0247 95.9262 10.9 95.9262 12.044V20H92.2862V0.76H95.9262V7.39C96.3942 6.766 97.0182 6.28067 97.7982 5.934C98.5782 5.57 99.4449 5.388 100.398 5.388ZM115.872 20.234C114.485 20.234 113.237 19.9307 112.128 19.324C111.018 18.7 110.143 17.8247 109.502 16.698C108.878 15.5713 108.566 14.2713 108.566 12.798C108.566 11.3247 108.886 10.0247 109.528 8.898C110.186 7.77133 111.079 6.90467 112.206 6.298C113.332 5.674 114.589 5.362 115.976 5.362C117.362 5.362 118.619 5.674 119.746 6.298C120.872 6.90467 121.756 7.77133 122.398 8.898C123.056 10.0247 123.386 11.3247 123.386 12.798C123.386 14.2713 123.048 15.5713 122.372 16.698C121.713 17.8247 120.812 18.7 119.668 19.324C118.541 19.9307 117.276 20.234 115.872 20.234ZM115.872 17.062C116.53 17.062 117.146 16.906 117.718 16.594C118.307 16.2647 118.775 15.7793 119.122 15.138C119.468 14.4967 119.642 13.7167 119.642 12.798C119.642 11.4287 119.278 10.38 118.55 9.652C117.839 8.90667 116.964 8.534 115.924 8.534C114.884 8.534 114.008 8.90667 113.298 9.652C112.604 10.38 112.258 11.4287 112.258 12.798C112.258 14.1673 112.596 15.2247 113.272 15.97C113.965 16.698 114.832 17.062 115.872 17.062ZM131.568 20.234C130.389 20.234 129.332 20.026 128.396 19.61C127.46 19.1767 126.714 18.596 126.16 17.868C125.622 17.14 125.328 16.334 125.276 15.45H128.942C129.011 16.0047 129.28 16.464 129.748 16.828C130.233 17.192 130.831 17.374 131.542 17.374C132.235 17.374 132.772 17.2353 133.154 16.958C133.552 16.6807 133.752 16.3253 133.752 15.892C133.752 15.424 133.509 15.0773 133.024 14.852C132.556 14.6093 131.802 14.3493 130.762 14.072C129.687 13.812 128.803 13.5433 128.11 13.266C127.434 12.9887 126.844 12.564 126.342 11.992C125.856 11.42 125.614 10.6487 125.614 9.678C125.614 8.88067 125.839 8.15267 126.29 7.494C126.758 6.83533 127.416 6.31533 128.266 5.934C129.132 5.55267 130.146 5.362 131.308 5.362C133.024 5.362 134.393 5.79533 135.416 6.662C136.438 7.51133 137.002 8.664 137.106 10.12H133.622C133.57 9.548 133.327 9.09733 132.894 8.768C132.478 8.42133 131.914 8.248 131.204 8.248C130.545 8.248 130.034 8.36933 129.67 8.612C129.323 8.85467 129.15 9.19267 129.15 9.626C129.15 10.1113 129.392 10.484 129.878 10.744C130.363 10.9867 131.117 11.238 132.14 11.498C133.18 11.758 134.038 12.0267 134.714 12.304C135.39 12.5813 135.97 13.0147 136.456 13.604C136.958 14.176 137.218 14.9387 137.236 15.892C137.236 16.724 137.002 17.4693 136.534 18.128C136.083 18.7867 135.424 19.3067 134.558 19.688C133.708 20.052 132.712 20.234 131.568 20.234ZM144.462 8.586V15.554C144.462 16.0393 144.574 16.3947 144.8 16.62C145.042 16.828 145.441 16.932 145.996 16.932H147.686V20H145.398C142.33 20 140.796 18.5093 140.796 15.528V8.586H139.08V5.596H140.796V2.034H144.462V5.596H147.686V8.586H144.462Z" fill="white"/>
</svg>
