<svg width="951" height="738" viewBox="0 0 951 738" fill="none" xmlns="http://www.w3.org/2000/svg">
<path d="M923.766 16.5303C922.126 6.16589 912.395 -0.906588 902.03 0.733511L733.132 27.4605C722.768 29.1006 715.695 38.8322 717.335 49.1966C718.975 59.5611 728.707 66.6335 739.071 64.9934L889.203 41.2362L912.96 191.368C914.601 201.733 924.332 208.805 934.697 207.165C945.061 205.525 952.134 195.793 950.493 185.429L923.766 16.5303ZM444.067 628.989L448.281 610.463L444.067 628.989ZM468.805 619.697L453.435 608.527L468.805 619.697ZM137.858 559.335L142.072 540.808L137.858 559.335ZM32.738 737.366L128.261 580.141L95.7853 560.41L0.26203 717.634L32.738 737.366ZM133.643 577.861L439.853 647.516L448.281 610.463L142.072 540.808L133.643 577.861ZM484.175 630.867L920.37 30.67L889.63 8.32996L453.435 608.527L484.175 630.867ZM439.853 647.516C456.627 651.332 474.061 644.783 484.175 630.867L453.435 608.527C452.259 610.145 450.232 610.906 448.281 610.463L439.853 647.516ZM128.261 580.141C129.378 578.302 131.546 577.384 133.643 577.861L142.072 540.808C124.033 536.705 105.391 544.599 95.7853 560.41L128.261 580.141Z" fill="#F2F4F9"/>
</svg>
